<?xml version="1.0" encoding="UTF-8" standalone="no"?>
<svg
    width="50px"
   height="50px"
   viewBox="0 0 50 50"
   version="1.1"
   id="logos"
   xmlns="http://www.w3.org/2000/svg"
   xmlns:svg="http://www.w3.org/2000/svg">
  <path id="bisect-logo"
     d="M 24.532812,0 C 23.633921,0 22.740603,0.21505614 21.94022,0.63371814 L 3.9989019,9.9867723 C 2.5705257,10.731745 1.6840871,12.196443 1.6840871,13.809524 l 0.013228,22.405002 c 0,1.61308 0.8864386,3.077779 2.3148148,3.822751 L 21.902942,49.365079 C 22.697169,49.777584 23.596642,50 24.495535,50 v -0.0072 c 0.898891,0 1.797163,-0.221213 2.59139,-0.633718 l 18.920154,-9.862914 c 1.428375,-0.744972 2.314959,-2.210873 2.308802,-3.823954 v -21.38169 c 0,-1.606923 -0.886439,-3.07297 -2.314815,-3.817941 L 27.124202,0.63371814 C 26.329976,0.22121293 25.431704,0 24.532812,0 Z m 0,1.8470418 c 0.597209,0 1.205725,0.1474273 1.735209,0.4244829 L 45.138872,12.11039 c 0.812697,0.424818 1.323954,1.268785 1.323954,2.186147 v 21.381674 c 0.0062,0.917361 -0.499087,1.761328 -1.317941,2.186147 l -18.918951,9.862914 c -0.533858,0.276134 -1.129084,0.424705 -1.730399,0.425686 -0.603366,0 -1.206928,-0.14863 -1.736412,-0.425686 L 4.8671078,38.399471 C 4.054411,37.974651 3.5443565,37.131888 3.5443565,36.214526 L 3.5311289,13.809524 c 0,-0.917363 0.511257,-1.760126 1.3239538,-2.184945 L 22.7964,2.2715247 c 0.535641,-0.2770556 1.139203,-0.4244829 1.736412,-0.4244829 z m 0.0024,3.3621934 c -1.368344,0 -2.736466,0.3262183 -3.986292,0.9788358 L 6.3269442,13.600289 c -0.2031734,0.104665 -0.3330928,0.320538 -0.3330928,0.54834 l 0.013227,21.659451 c 0,0.227802 0.1225599,0.436463 0.3318904,0.541126 l 14.1726792,7.388167 c 2.499651,1.305237 5.474134,1.305237 7.973785,0 l 6.451419,-3.360991 v -3.459595 l 3.861232,1.446609 4.888167,-2.549303 c 0.203174,-0.104666 0.33189,-0.320539 0.33189,-0.54834 l -0.01202,-20.637326 c 0,-0.227802 -0.122559,-0.43646 -0.33189,-0.541126 l -4.852092,-2.531265 -3.860029,1.44661 V 9.5430495 L 28.521509,6.188071 C 27.271683,5.5354535 25.903558,5.2092352 24.535217,5.2092352 Z m 2.564935,1.3047137 1.014911,0.5291005 0.646945,0.3391052 5.227273,2.7212604 v 10.539923 c 0,0.160077 0.122511,0.295527 0.282588,0.30784 l 4.457672,0.321068 c 0.178547,0.01231 0.333093,-0.129293 0.333093,-0.30784 v -8.213083 l 4.094516,2.129629 v 20.169553 l -4.094516,2.136845 v -8.848004 c 0,-0.178548 -0.154546,-0.320154 -0.333093,-0.307841 l -4.457672,0.327081 c -0.160077,0.01231 -0.282588,0.147763 -0.282588,0.30784 V 39.84127 l -5.215248,2.714045 -1.661856,0.868206 c 0,0 0.892063,-1.279664 1.002886,-3.631554 v -9.333814 c 0,0 0.08647,-3.497556 -2.782588,-5.418471 2.869057,-1.914757 2.782588,-5.411255 2.782588,-5.411255 v -9.001924 c 0,-2.6535709 -1.014911,-4.1125541 -1.014911,-4.1125541 z m -6.27104,8.5906681 c 0.262795,-0.0057 0.489418,0.203849 0.489418,0.478596 v 4.900192 c 0,0.42482 -0.320733,0.788889 -0.74555,0.838143 l -1.028139,0.122656 -1.255411,0.141895 -1.884319,0.22126 -5.312651,0.615681 -1.3672439,0.159933 -0.554352,0.06734 v -4.414381 l 0.554352,-0.146706 1.3672439,-0.37037 5.312651,-1.434584 1.884319,-0.503848 2.425445,-0.65897 c 0.03848,-0.01001 0.0767,-0.01602 0.114237,-0.01683 z m -0.286195,1.469457 -0.998076,0.2405 -1.255411,0.301828 -1.884319,0.448533 -5.312651,1.280664 -1.3672439,0.32708 v 2.265512 l 1.3672439,-0.22126 5.312651,-0.868206 1.884319,-0.30784 1.255411,-0.203223 0.998076,-0.167147 z m -0.998076,1.194084 v 1.151996 l -1.255411,0.22126 v -1.095479 z m -3.13973,0.690235 v 1.028139 l -5.312651,0.960799 v -0.818904 z m -7.2282349,9.130592 0.554353,0.06734 1.3672439,0.159933 5.31265,0.61568 1.884319,0.22126 1.256614,0.141895 1.028139,0.123858 c 0.424818,0.04925 0.744348,0.405966 0.744348,0.836941 v 4.900192 c 0,0.313997 -0.301972,0.541799 -0.603656,0.46176 l -2.425445,-0.657767 -1.884319,-0.505051 -5.31265,-1.434584 -1.3672439,-0.369168 -0.554353,-0.147907 z m 0.554353,1.212121 v 2.266715 l 1.3672439,0.325877 5.31265,1.280664 1.884319,0.449736 1.256614,0.300625 0.996873,0.240501 v -3.096441 l -0.996873,-0.165946 -1.256614,-0.203222 -1.884319,-0.307841 -5.31265,-0.868205 z m 1.3672439,0.992064 5.31265,0.959596 v 1.028138 l -5.31265,-1.168831 z m 7.196969,1.304714 1.256614,0.22126 v 1.151995 l -1.256614,-0.277777 z" />
</svg>