<?xml version="1.0" encoding="UTF-8" standalone="no"?>
<svg
   width="150"
   height="150"
   fill="#1f1f1f"
   viewBox="0 0 300 300"
   version="1.1"
   id="logos"
   xmlns="http://www.w3.org/2000/svg"
   xmlns:svg="http://www.w3.org/2000/svg">
  <path
     id="studio-logo0"
     d="M 65.072192,-9.9999962e-7 C 51.468084,-2.9999996e-6 39.591573,7.937257 33.837582,19.39603 c -0.819265,1.631525 -1.304295,1.493053 -1.908838,-0.221515 -1.162322,-3.296482 -4.009962,-5.838759 -7.604377,-6.507017 -5.429679,-1.004769 -10.645993,2.581834 -11.65172,8.011421 L 0.17136003,88.176413 C -1.1035888,95.072056 4.9297202,101.10446 11.825035,99.828324 L 79.32143,87.328786 c 5.429497,-1.005743 9.016043,-6.222142 8.011293,-11.651906 -0.72474,-3.659857 -3.388888,-6.512634 -6.785459,-7.590487 -1.732846,-0.549891 -1.864623,-0.973659 -0.22579,-1.778132 C 91.932769,60.608513 100,48.645015 100,34.92839 100.00001,15.756544 84.24373,0 65.072192,-9.9999962e-7 Z m 0,19.99925799999962 c 8.36334,1e-6 14.928888,6.565659 14.928888,14.929133 0,8.363475 -6.565548,14.929131 -14.928888,14.929131 -8.363337,0 -14.928889,-6.565652 -14.928889,-14.929131 0,-8.363475 6.565552,-14.929134 14.928889,-14.929133 z M 30.58893,40.402685 c 2.371446,14.822601 14.195005,26.643427 29.018702,29.010775 2.403012,0.383762 2.445453,0.775461 0.05106,1.218906 l -32.836685,6.081363 a 3.0312573,3.0313067 0 0 1 -3.532574,-3.532593 l 6.079416,-32.829381 c 0.443408,-2.394445 0.835634,-2.352012 1.220078,0.05095 z" />
  <path
     id="studio-logo1"
     d="m 165.07219,99.999998 c -13.60411,-2e-6 -25.48061,7.937262 -31.2346,19.396032 -0.81927,1.63153 -1.3043,1.49305 -1.90884,-0.22151 -1.16232,-3.29649 -4.00996,-5.83876 -7.60439,-6.50702 -5.42967,-1.00477 -10.64599,2.58183 -11.65171,8.01142 l -12.50129,67.49749 c -1.274949,6.89565 4.75836,12.92805 11.65368,11.65192 l 67.49639,-12.49954 c 5.42949,-1.00575 9.01604,-6.22214 8.01129,-11.65191 -0.72474,-3.65986 -3.38889,-6.51263 -6.78546,-7.59049 -1.73285,-0.54989 -1.86462,-0.97365 -0.22579,-1.77813 C 191.93276,160.60851 200,148.64502 200,134.92839 c 1e-5,-19.17184 -15.75627,-34.928392 -34.92781,-34.928392 z m 0,19.999262 c 8.36334,0 14.92889,6.56566 14.92889,14.92913 0,8.36348 -6.56555,14.92913 -14.92889,14.92913 -8.36334,0 -14.92889,-6.56565 -14.92889,-14.92913 0,-8.36347 6.56555,-14.92913 14.92889,-14.92913 z m -34.48325,20.40343 c 2.37144,14.8226 14.195,26.64342 29.01869,29.01077 2.40301,0.38376 2.44545,0.77546 0.0511,1.21891 l -32.83668,6.08136 a 3.0312573,3.0313067 0 0 1 -3.53258,-3.53259 l 6.07942,-32.82938 c 0.44341,-2.39445 0.83564,-2.35202 1.22008,0.051 z" />
  <path
     id="studio-logo2"
     d="m 265.07219,199.99999 c -13.60411,0 -25.48061,7.93727 -31.2346,19.39604 -0.81927,1.63153 -1.3043,1.49305 -1.90884,-0.22151 -1.16232,-3.29649 -4.00996,-5.83876 -7.60439,-6.50702 -5.42967,-1.00477 -10.64599,2.58183 -11.65171,8.01142 l -12.50129,67.49749 c -1.27495,6.89565 4.75836,12.92805 11.65368,11.65192 l 67.49639,-12.49954 c 5.42949,-1.00575 9.01604,-6.22214 8.01129,-11.65191 -0.72474,-3.65986 -3.38889,-6.51263 -6.78546,-7.59049 -1.73285,-0.54989 -1.86462,-0.97365 -0.22579,-1.77813 C 291.93276,260.60851 300,248.64502 300,234.92839 c 10e-6,-19.17184 -15.75627,-34.9284 -34.92781,-34.9284 z m 0,19.99927 c 8.36334,0 14.92889,6.56566 14.92889,14.92913 0,8.36348 -6.56555,14.92913 -14.92889,14.92913 -8.36334,0 -14.92889,-6.56565 -14.92889,-14.92913 0,-8.36347 6.56555,-14.92913 14.92889,-14.92913 z m -34.48325,20.40343 c 2.37144,14.8226 14.195,26.64342 29.01869,29.01077 2.40301,0.38376 2.44545,0.77546 0.0511,1.21891 l -32.83668,6.08136 a 3.0312573,3.0313067 0 0 1 -3.53258,-3.53259 l 6.07942,-32.82938 c 0.44341,-2.39445 0.83564,-2.35202 1.22008,0.051 z" />
</svg>
