<?xml version="1.0" encoding="UTF-8" standalone="no"?>

<svg
  width="285.75"
  height="285.75"
  viewBox="0 0 285.75mm 285.75mm"
  xml:space="preserve"
  id="svg1"
  xmlns="http://www.w3.org/2000/svg"
  xmlns:svg="http://www.w3.org/2000/svg">
    <g><path id="rect1" style="fill:#5C27CE;"
      d="m 174.86736,31.171741 c -30.19231,0 -56.1885,17.314023 -70.2409,42.517823 -0.58429,1.047957 -1.21163,0.950512 -1.57118,-0.193594 C 100.95046,66.798319 95.424291,61.647962 88.468502,60.087805 77.773896,57.691246 67.161508,64.418503 64.765556,75.113245 L 29.966646,230.39627 c -3.050772,13.6204 8.540011,26.05118 22.340239,23.95926 L 210.20887,230.40816 c 10.83601,-1.64303 18.28815,-11.75961 16.64447,-22.59552 -1.12355,-6.78114 -5.66265,-12.44967 -11.92355,-15.06518 -0.97239,-0.40622 -1.04845,-1.06826 -0.14304,-1.6082 24.87978,-14.83711 41.47668,-42.99532 41.47668,-74.45543 0,-46.319574 -35.96035,-85.512089 -81.39607,-85.512089 z m 0,39.6875 c 22.55279,0 41.70857,19.609329 41.70857,45.824589 0,26.21528 -19.15578,45.82408 -41.70857,45.82408 -22.55279,0 -41.70908,-19.6088 -41.70908,-45.82408 0,-26.21526 19.15629,-45.824589 41.70908,-45.824589 z M 94.789324,131.84868 c 5.270826,30.41568 26.075956,55.78117 53.870986,65.76798 2.26404,0.81347 2.2107,1.64971 -0.16816,2.0105 l -68.364828,10.36837 a 3.5214542,3.5214542 47.003578 0 1 -3.964264,-4.25168 l 16.578016,-73.97743 c 0.692117,-3.08849 1.507911,-3.0358 2.04825,0.0823 z" 
    /></g>
</svg>